PathFileType	4	(X/Y/Z)	/Users/itak/Documents/Research/Walk-IL/dataset/trc/00388_00012.trc
DataRate	CameraRate	NumFrames	NumMarkers	Units	OrigDataRate	OrigDataStartFrame	OrigNumFrames
100.000000	100.000000	4	53	mm	100.000000	305	610
Frame#	Time	RPSI			LPSI			L3			STRN			T10			C7			CLAV			RBAK			LBAK			LSHO			LUPA			LAEL			LAOL			LWTS			LWPS			LFRA			LIFD			LHPS			LHTS			RSHO			RUPA			RAEL			RAOL			RWTS			RWPS			RFRA			RIFD			RHTS			RHPS			RBHD			LFHD			RFHD			LBHD			LHIP			RHIP			RASI			LKNE			LTHI			LANK			LTIP			LTOE			LMT5			LHEE			RKNE			RTHI			RANK			RTIP			RTOE			RMT1			RMT5			RHEE			LASI			LMT1			
		X1	Y1	Z1	X2	Y2	Z2	X3	Y3	Z3	X4	Y4	Z4	X5	Y5	Z5	X6	Y6	Z6	X7	Y7	Z7	X8	Y8	Z8	X9	Y9	Z9	X10	Y10	Z10	X11	Y11	Z11	X12	Y12	Z12	X13	Y13	Z13	X14	Y14	Z14	X15	Y15	Z15	X16	Y16	Z16	X17	Y17	Z17	X18	Y18	Z18	X19	Y19	Z19	X20	Y20	Z20	X21	Y21	Z21	X22	Y22	Z22	X23	Y23	Z23	X24	Y24	Z24	X25	Y25	Z25	X26	Y26	Z26	X27	Y27	Z27	X28	Y28	Z28	X29	Y29	Z29	X30	Y30	Z30	X31	Y31	Z31	X32	Y32	Z32	X33	Y33	Z33	X34	Y34	Z34	X35	Y35	Z35	X36	Y36	Z36	X37	Y37	Z37	X38	Y38	Z38	X39	Y39	Z39	X40	Y40	Z40	X41	Y41	Z41	X42	Y42	Z42	X43	Y43	Z43	X44	Y44	Z44	X45	Y45	Z45	X46	Y46	Z46	X47	Y47	Z47	X48	Y48	Z48	X49	Y49	Z49	X50	Y50	Z50	X51	Y51	Z51	X52	Y52	Z52	X53	Y53	Z53	

306	3.05	277.6048583984375	961.2191772460938	-11.45642566680908	266.2464904785156	956.1115112304688	-143.8384246826172	277.0846862792969	1049.269165039062	-75.74604034423828	524.0089111328125	1205.143798828125	-84.11766815185547	275.4712524414062	1152.049438476562	-85.14342498779297	315.0857543945312	1402.061767578125	-98.39611053466797	470.1213073730469	1324.245971679688	-86.34357452392578	271.3897399902344	1255.944458007812	-32.40202331542969	303.7127990722656	1366.90625	-201.6095123291016	394.1514282226562	1382.343139648438	-249.6058807373047	365.4609069824219	1269.983032226562	-322.3934020996094	368.789306640625	1073.093383789062	-351.8097534179688	304.8623352050781	1055.503295898438	-295.9153747558594	470.9582214355469	868.7910766601562	-303.6104736328125	427.3936157226562	851.1182861328125	-371.4821166992188	390.6366271972656	972.1222534179688	-363.4458312988281	492.2197570800781	692.0108642578125	-310.83056640625	449.6642150878906	768.228271484375	-363.2687377929688	501.6121826171875	776.5003051757812	-325.3891906738281	365.6704711914062	1379.697021484375	62.11541366577148	346.2162780761719	1315.8330078125	119.0474700927734	327.4284057617188	1058.293334960938	160.1747436523438	322.4922180175781	1044.33056640625	65.16230010986328	459.0104064941406	843.102294921875	165.6434020996094	405.0448913574219	831.833984375	213.7511138916016	348.0274047851562	991.212158203125	181.8680419921875	458.13037109375	669.78173828125	168.4628448486328	472.4920654296875	738.4551391601562	189.1146545410156	408.2828369140625	742.1837768554688	213.4972076416016	346.4452514648438	1582.521362304688	-4.634885311126709	484.8301696777344	1603.28173828125	-147.868408203125	476.3872375488281	1606.742065429688	-25.13950347900391	339.036865234375	1573.517456054688	-166.4730377197266	349.0720825195312	953.5652465820312	-261.5045776367188	373.9511413574219	942.0354614257812	97.01728057861328	493.6152648925781	961.1351318359375	33.04706954956055	492.1961669921875	470.31396484375	-223.8764038085938	454.1156311035156	606.8177490234375	-244.4183502197266	397.0837097167969	36.73280715942383	-173.592041015625	447.5442810058594	237.1608123779297	-208.9934997558594	610.6080322265625	37.60551071166992	-101.3162078857422	526.9790649414062	38.85906982421875	-179.0367431640625	355.4659423828125	35.52344131469727	-118.3074493408203	535.0446166992188	475.8101501464844	49.53185653686523	496.3108520507812	729.240234375	79.19770812988281	258.7087707519531	142.8459777832031	84.46613311767578	484.4524230957031	360.8017272949219	51.22734069824219	377.9480590820312	38.10529327392578	0.4000393152236938	318.0309143066406	75.43033599853516	-20.1666316986084	315.8668212890625	79.69007110595703	81.26465606689453	187.0451965332031	178.9867401123047	40.90314865112305	464.1709289550781	957.9269409179688	-227.0194702148438	528.016845703125	40.05270385742188	-74.91317749023438	
307	3.06	269.5744018554688	960.3408203125	-10.9114875793457	257.8385925292969	955.5237426757812	-143.2991943359375	268.7584533691406	1048.244140625	-74.86072540283203	515.1956176757812	1204.044311523438	-83.72022247314453	266.9524841308594	1151.012573242188	-84.02512359619141	306.0690002441406	1401.046142578125	-97.51317596435547	461.2624816894531	1323.102905273438	-85.93501281738281	263.0163269042969	1254.88232421875	-30.94311714172363	294.3778076171875	1365.678833007812	-200.6076354980469	384.6337280273438	1380.995239257812	-249.0018615722656	354.7218322753906	1268.519775390625	-321.1559448242188	356.0669860839844	1071.90771484375	-350.9326782226562	292.5931701660156	1054.791748046875	-294.4169616699219	455.1209716796875	865.4620971679688	-304.1969604492188	410.4466552734375	848.9175415039062	-371.7325439453125	376.2120361328125	970.4725341796875	-363.0672607421875	472.4795227050781	688.2845458984375	-312.5491638183594	431.0629577636719	765.6207275390625	-364.1360473632812	483.5803833007812	772.6389770507812	-326.7835693359375	357.4031982421875	1378.908813476562	62.86209487915039	338.3107604980469	1314.931518554688	119.9808120727539	320.4447021484375	1057.515502929688	161.5059509277344	315.2072448730469	1043.286743164062	66.62042236328125	453.2033996582031	843.2108764648438	166.7056427001953	399.5783386230469	831.7872924804688	215.1779479980469	341.3362121582031	990.5095825195312	183.1930084228516	453.9881286621094	669.952392578125	171.0771636962891	467.7906494140625	738.9606323242188	191.0186462402344	403.6787414550781	742.258544921875	215.6604156494141	337.1877746582031	1581.324462890625	-4.0525221824646	475.2884521484375	1602.574462890625	-147.5731353759766	467.0223693847656	1606.047607421875	-24.85576438903809	329.5811157226562	1572.238159179688	-165.9674835205078	340.694580078125	953.270751953125	-260.9262084960938	365.4384460449219	940.441650390625	97.45404815673828	485.8518676757812	959.1870727539062	33.76519012451172	487.9584350585938	470.9277954101562	-224.1453399658203	448.3541564941406	606.9588012695312	-244.6091461181641	396.9470825195312	36.52426528930664	-173.8865509033203	445.4966735839844	237.3438262939453	-209.2529754638672	610.2635498046875	37.91379547119141	-101.1469650268555	526.8880615234375	38.89435577392578	-179.0797576904297	355.367431640625	35.3447380065918	-118.5739822387695	515.2379150390625	470.9609069824219	51.03351974487305	484.1402587890625	725.5934448242188	79.28092956542969	228.429931640625	145.9346771240234	83.89259338378906	461.3960876464844	357.4971618652344	52.43718719482422	344.0973205566406	37.26154327392578	-0.2420055419206619	285.3481140136719	76.81578826904297	-21.07382202148438	283.1253051757812	80.48249816894531	80.52375793457031	158.7666778564453	185.1749572753906	40.26981353759766	455.7863464355469	957.4805908203125	-226.3619995117188	527.806640625	40.21091079711914	-74.97171020507812	
308	3.07	261.5482788085938	959.3903198242188	-10.36459732055664	249.4860687255859	954.8351440429688	-142.7616882324219	260.4026794433594	1047.093383789062	-73.96179962158203	506.3135681152344	1202.899047851562	-83.26945495605469	258.3755798339844	1149.85400390625	-82.82994842529297	296.9316101074219	1399.910522460938	-96.53688812255859	452.27880859375	1321.897216796875	-85.4722900390625	254.5520935058594	1253.718505859375	-29.38789367675781	284.8856506347656	1364.318115234375	-199.5028381347656	374.9291687011719	1379.5185546875	-248.3223724365234	343.7388916015625	1266.925537109375	-319.7947082519531	343.1808166503906	1070.640869140625	-349.8684387207031	280.1803283691406	1053.970947265625	-292.7215576171875	439.1431274414062	862.1509399414062	-304.6138916015625	393.4295959472656	846.7401123046875	-371.7924194335938	361.6072387695312	968.76611328125	-362.4925842285156	452.7311096191406	684.65966796875	-313.9953918457031	412.41357421875	763.0731201171875	-364.7835693359375	465.4518432617188	768.8431396484375	-327.9620056152344	349.0357971191406	1378.052978515625	63.68218231201172	330.3321533203125	1314.00439453125	120.9860534667969	313.4080505371094	1056.676635742188	162.8601837158203	307.8565063476562	1042.209716796875	68.08320617675781	447.496337890625	843.3759155273438	167.8509521484375	394.1628112792969	831.740966796875	216.6360473632812	334.6597900390625	989.798095703125	184.5747222900391	450.0235290527344	670.1831665039062	173.668701171875	463.2047119140625	739.516357421875	192.9322967529297	399.1687927246094	742.3445434570312	217.8008575439453	327.8929443359375	1580.025390625	-3.457043170928955	465.7204284667969	1601.697021484375	-147.2466735839844	457.6345520019531	1605.210205078125	-24.54475021362305	320.0846252441406	1570.85498046875	-165.4315948486328	332.2843017578125	952.9244995117188	-260.3270263671875	356.8346557617188	938.7971801757812	97.83632659912109	478.0670166015625	957.17138671875	34.48814010620117	483.7936096191406	471.5225524902344	-224.391357421875	442.7057800292969	607.0614013671875	-244.7782745361328	396.8231506347656	36.34438705444336	-174.2026214599609	443.5173645019531	237.5169525146484	-209.5123901367188	609.9191284179688	38.20260238647461	-100.9952697753906	526.8171997070312	38.91995239257812	-179.1210784912109	355.3023376464844	35.18735122680664	-118.8291015625	494.9774169921875	466.2601623535156	52.75794219970703	471.755615234375	721.9983520507812	79.462890625	198.9817352294922	148.4245758056641	83.17873382568359	438.2034606933594	354.1875915527344	53.79883575439453	311.313232421875	36.47441864013672	-1.196113348007202	253.579345703125	78.00857543945312	-22.29436111450195	251.2050933837891	80.85929870605469	79.46926879882812	131.2747955322266	190.5506896972656	39.51780319213867	447.4154052734375	957.0053100585938	-225.6771850585938	527.6104736328125	40.35560989379883	-75.04036712646484	
309	3.08	253.5126800537109	958.38916015625	-9.815953254699707	241.1773834228516	954.0474853515625	-142.2353515625	252.0350494384766	1045.822875976562	-73.06559753417969	497.3378295898438	1201.712280273438	-82.77322387695312	249.7349853515625	1148.581787109375	-81.5587158203125	287.6678771972656	1398.662109375	-95.45725250244141	443.1638488769531	1320.641479492188	-84.95700836181641	245.9935150146484	1252.464599609375	-27.73507690429688	275.230712890625	1362.840454101562	-198.2853088378906	365.0221557617188	1377.929321289062	-247.5637969970703	332.5311279296875	1265.250610351562	-318.3471984863281	330.1156921386719	1069.302734375	-348.6268615722656	267.6378479003906	1053.05419921875	-290.8232421875	423.03515625	858.8787231445312	-304.8706665039062	376.3533630371094	844.5922241210938	-371.6510620117188	346.8358459472656	967.026611328125	-361.7288513183594	432.9877624511719	681.1441650390625	-315.1529235839844	393.7459411621094	760.590576171875	-365.1904602050781	447.251708984375	765.131591796875	-328.90576171875	340.5612487792969	1377.139892578125	64.57632446289062	322.2681579589844	1313.066040039062	122.0652008056641	306.2828979492188	1055.796630859375	164.2472991943359	300.4176025390625	1041.11181640625	69.56581878662109	441.8761901855469	843.624755859375	169.0843963623047	388.7917785644531	831.7097778320312	218.1319274902344	327.9884338378906	989.0872802734375	186.0265197753906	446.2272644042969	670.5032348632812	176.1742401123047	458.7119140625	740.1378173828125	194.82080078125	394.7432556152344	742.4539184570312	219.8949279785156	318.5552368164062	1578.646728515625	-2.848671913146973	456.1163330078125	1600.661010742188	-146.8875885009766	448.2158508300781	1604.245361328125	-24.20418548583984	310.5409545898438	1569.379516601562	-164.8621063232422	323.8107604980469	952.5116577148438	-259.7109375	348.1358032226562	937.143310546875	98.18563842773438	470.2256469726562	955.103271484375	35.22164154052734	479.6729125976562	472.0955200195312	-224.5943145751953	437.1345825195312	607.1262817382812	-244.9112243652344	396.7202758789062	36.19266891479492	-174.5264739990234	441.6001892089844	237.6798553466797	-209.7569274902344	609.5875854492188	38.46607208251953	-100.8608093261719	526.7617797851562	38.93645477294922	-179.1607513427734	355.2802734375	35.04754638671875	-119.0669555664062	474.3518981933594	461.7759399414062	54.64290237426758	459.1749267578125	718.4937744140625	79.76717376708984	170.4659271240234	150.2947540283203	82.33907318115234	414.9700927734375	350.9044189453125	55.25352096557617	279.8169250488281	35.79476165771484	-2.471341371536255	222.97998046875	79.03923034667969	-23.77311134338379	220.3499298095703	80.87435150146484	78.12857818603516	104.5411605834961	195.0080871582031	38.69345092773438	439.0525207519531	956.4883422851562	-224.9640045166016	527.4368896484375	40.48628234863281	-75.11476898193359	
